<svg xmlns="http://www.w3.org/2000/svg" viewBox="0 0 48 48" height="48" width="48"><g><path d="M7.48 23.84a1.26 1.26 0 1 0 2.52 0 1.26 1.26 0 1 0 -2.52 0" fill="#85dae2" stroke-width="2"></path><path d="M36.88 28.34a1.26 1.26 0 1 0 2.52 0 1.26 1.26 0 1 0 -2.52 0" fill="#85dae2" stroke-width="2"></path><path d="M47.36 16.78a2.1 2.1 0 0 0 -1.72 -1.72 13.12 13.12 0 0 1 -9.9 -8.3 2.12 2.12 0 0 0 -1.56 -1.34A47.72 47.72 0 0 0 24 4.36a47.72 47.72 0 0 0 -10.18 1.06 2.12 2.12 0 0 0 -1.56 1.34A13 13 0 0 1 10 10.54L6.62 6.42a2 2 0 1 0 -3.08 2.56L7.06 13.2a13.22 13.22 0 0 1 -4.7 1.86 2.1 2.1 0 0 0 -1.72 1.72 41.04 41.04 0 0 0 0 14.44 2.1 2.1 0 0 0 1.72 1.72 13.12 13.12 0 0 1 10 8.3 2.12 2.12 0 0 0 1.56 1.34 47.72 47.72 0 0 0 10.18 1.06 47.72 47.72 0 0 0 10.18 -1.06 2.12 2.12 0 0 0 1.56 -1.34 13.12 13.12 0 0 1 9.9 -8.3 2.1 2.1 0 0 0 1.72 -1.72 41.04 41.04 0 0 0 0 -14.44ZM8.74 26.6a2.76 2.76 0 1 1 2.76 -2.76 2.76 2.76 0 0 1 -2.76 2.76Zm24 9.34a13.56 13.56 0 0 1 -17.4 0 1.52 1.52 0 0 1 -0.2 -2.12 1.5 1.5 0 0 1 2.12 -0.18 10.88 10.88 0 0 0 13.56 0 1.5 1.5 0 0 1 2.12 0.18 1.52 1.52 0 0 1 -0.24 2.18ZM16 27.6v-8a2 2 0 0 1 2 -2h12a2 2 0 0 1 2 2v8a2 2 0 0 1 -2 2H18a2 2 0 0 1 -2 -2ZM32.9 14a1.56 1.56 0 0 1 -1.16 0.54 1.48 1.48 0 0 1 -0.96 -0.36 10.82 10.82 0 0 0 -13.56 0A1.5 1.5 0 1 1 15.3 12a13.56 13.56 0 0 1 17.4 0 1.52 1.52 0 0 1 0.2 2Zm5.24 17.04a2.76 2.76 0 1 1 0 -5.5 2.76 2.76 0 0 1 0 5.5Zm0 -9.5a2.76 2.76 0 1 1 0 -5.5 2.76 2.76 0 0 1 0 5.5Z" fill="#85dae2" stroke-width="2"></path><path d="M36.88 18.84a1.26 1.26 0 1 0 2.52 0 1.26 1.26 0 1 0 -2.52 0" fill="#85dae2" stroke-width="2"></path></g></svg>